<svg viewBox="0 0 100 100" xmlns="http://www.w3.org/2000/svg">
  <path d="M20 70 Q15 65 15 60 Q15 55 18 50 Q20 45 25 42 Q28 40 32 42 L32 35 Q32 30 35 27 Q38 24 42 24 Q46 24 49 27 Q52 30 52 35 L52 25 Q52 20 55 17 Q58 14 62 14 Q66 14 69 17 Q72 20 72 25 L72 20 Q72 15 75 12 Q78 9 82 9 Q86 9 89 12 Q92 15 92 20 L92 55 Q92 65 87 72 Q82 79 75 82 Q68 85 60 85 L40 85 Q32 85 26 79 Q20 73 20 70 Z" 
        fill="none" 
        stroke="white" 
        stroke-width="3" 
        stroke-linecap="round" 
        stroke-linejoin="round"/>
</svg>